<svg id="Capa_1" enable-background="new 0 0 512.001 512.001" height="512" viewBox="0 0 512.001 512.001" width="512" xmlns="http://www.w3.org/2000/svg"><g><path d="m442.827 89.658c-33.396 0-69.528 27.101-107.513 80.597-8.909-6.543-17.863-15.605-27.784-25.644-34.867-35.285-82.618-83.609-189.832-83.609h-102.697c-6.058 0-11.521 3.644-13.849 9.236s-1.063 12.036 3.206 16.334c14.774 14.876 30.981 27.357 48.183 37.254-1.715 1.233-3.177 2.834-4.261 4.729-2.671 4.671-2.636 10.415.093 15.053 9.34 15.876 21.192 29.344 34.822 39.97-1.682 1.138-3.141 2.622-4.262 4.391-2.751 4.339-3.09 9.783-.899 14.43 7.813 16.569 19.121 31.002 33.076 42.326-1.147 1.006-2.15 2.195-2.959 3.54-2.713 4.507-2.868 10.106-.406 14.756 2.875 5.43 5.791 10.324 9.208 15.451 22.117 32.893 60.635 52.52 103.034 52.52h11.293c-19.769 29.541-52.272 45.01-95.279 45.01h-60c-8.284 0-15 6.716-15 15s6.716 15 15 15h11.822c12.608 0 23.111 5.688 37.647 13.561 24.495 13.266 58.041 31.435 122.485 31.435 110.621 0 217.077-73.748 217.077-190.7 0-12.192-3.427-29.58-3.427-46.274 0-29.637 10.923-43.426 37.702-47.593 4.375-.681 8.227-3.26 10.522-7.047s2.8-8.395 1.378-12.589c-.194-.571-19.925-57.137-68.38-57.137zm.576 77.144c-7.939 12.281-11.799 27.727-11.799 47.222 0 17.913 3.427 36.965 3.427 46.274 0 100.59-95.118 160.7-187.077 160.7-40.331 0-66.383-7.765-86.287-16.702 50.679-6.995 89.307-35.714 108.245-82.685 1.864-4.623 1.309-9.87-1.479-14.001-2.789-4.132-7.448-6.608-12.433-6.608h-36.014c-28.104 0-53.811-11.049-70.902-30h35.964c8.284 0 15-6.716 15-15s-6.716-15-15-15c-25.747 0-49.403-11.081-65.927-30h43.163c8.284 0 15-6.716 15-15s-6.716-15-15-15c-26.591 0-51.614-10.877-70.665-30h60.454c8.284 0 15-6.716 15-15s-6.716-15-15-15c-33.458 0-66.363-10.467-95.525-30h61.149c94.682 0 135.608 41.416 168.493 74.695 15.239 15.422 29.634 29.989 47.062 38.239 6.721 3.18 14.758.958 18.89-5.225 45.956-68.783 76.542-79.053 90.684-79.053 14.971 0 25.84 11.887 32.431 22.144-13.818 5.247-24.492 13.613-31.854 25z"/></g></svg>